<?xml version="1.0" encoding="UTF-8" standalone="no"?>
<!DOCTYPE svg PUBLIC "-//W3C//DTD SVG 1.1//EN"
 "http://www.w3.org/Graphics/SVG/1.1/DTD/svg11.dtd">
<!-- Generated by graphviz version 2.44.1 (20200629.0800)
 -->
<!-- Title: G Pages: 1 -->
<svg width="427pt" height="267pt"
 viewBox="0.00 0.00 427.00 267.00" xmlns="http://www.w3.org/2000/svg" xmlns:xlink="http://www.w3.org/1999/xlink">
<g id="graph0" class="graph" transform="scale(1 1) rotate(0) translate(4 263)">
<title>G</title>
<polygon fill="white" stroke="transparent" points="-4,4 -4,-263 423,-263 423,4 -4,4"/>
<g id="clust1" class="cluster">
<title>cluster_0</title>
<polygon fill="none" stroke="transparent" points="4,-50 4,-209 65,-209 65,-50 4,-50"/>
<text text-anchor="middle" x="34.5" y="-193.8" font-family="fangsong" font-size="14.00">输入层</text>
</g>
<g id="clust2" class="cluster">
<title>cluster_1</title>
<polygon fill="none" stroke="transparent" points="121,-8 121,-251 182,-251 182,-8 121,-8"/>
<text text-anchor="middle" x="151.5" y="-235.8" font-family="fangsong" font-size="14.00">隐藏层</text>
</g>
<g id="clust3" class="cluster">
<title>cluster_2</title>
<polygon fill="none" stroke="transparent" points="238,-8 238,-251 299,-251 299,-8 238,-8"/>
<text text-anchor="middle" x="268.5" y="-235.8" font-family="fangsong" font-size="14.00">隐藏层</text>
</g>
<g id="clust4" class="cluster">
<title>cluster_3</title>
<polygon fill="none" stroke="transparent" points="355,-71 355,-188 416,-188 416,-71 355,-71"/>
<text text-anchor="middle" x="385.5" y="-172.8" font-family="fangsong" font-size="14.00">输出层</text>
</g>
<!-- l10 -->
<g id="node1" class="node">
<title>l10</title>
<ellipse fill="black" stroke="white" stroke-width="15" cx="34" cy="-118" rx="18" ry="18"/>
</g>
<!-- l20 -->
<g id="node4" class="node">
<title>l20</title>
<ellipse fill="gray" stroke="white" stroke-width="15" cx="151" cy="-76" rx="18" ry="18"/>
</g>
<!-- l10&#45;&gt;l20 -->
<g id="edge1" class="edge">
<title>l10&#45;&gt;l20</title>
<path fill="none" stroke="black" d="M51.48,-111.98C71.92,-104.52 106.79,-91.78 129.09,-83.64"/>
<polygon fill="black" stroke="black" points="129.83,-85.23 133.92,-81.87 128.63,-81.94 129.83,-85.23"/>
</g>
<!-- l21 -->
<g id="node5" class="node">
<title>l21</title>
<ellipse fill="gray" stroke="white" stroke-width="15" cx="151" cy="-34" rx="18" ry="18"/>
</g>
<!-- l10&#45;&gt;l21 -->
<g id="edge2" class="edge">
<title>l10&#45;&gt;l21</title>
<path fill="none" stroke="black" d="M49.1,-107.7C69.88,-92.52 108.73,-64.14 131.69,-47.37"/>
<polygon fill="black" stroke="black" points="132.78,-48.75 135.78,-44.38 130.71,-45.92 132.78,-48.75"/>
</g>
<!-- l22 -->
<g id="node6" class="node">
<title>l22</title>
<ellipse fill="gray" stroke="white" stroke-width="15" cx="151" cy="-202" rx="18" ry="18"/>
</g>
<!-- l10&#45;&gt;l22 -->
<g id="edge3" class="edge">
<title>l10&#45;&gt;l22</title>
<path fill="none" stroke="black" d="M49.1,-128.3C69.88,-143.48 108.73,-171.86 131.69,-188.63"/>
<polygon fill="black" stroke="black" points="130.71,-190.08 135.78,-191.62 132.78,-187.25 130.71,-190.08"/>
</g>
<!-- l23 -->
<g id="node7" class="node">
<title>l23</title>
<ellipse fill="gray" stroke="white" stroke-width="15" cx="151" cy="-160" rx="18" ry="18"/>
</g>
<!-- l10&#45;&gt;l23 -->
<g id="edge4" class="edge">
<title>l10&#45;&gt;l23</title>
<path fill="none" stroke="black" d="M51.48,-124.02C71.92,-131.48 106.79,-144.22 129.09,-152.36"/>
<polygon fill="black" stroke="black" points="128.63,-154.06 133.92,-154.13 129.83,-150.77 128.63,-154.06"/>
</g>
<!-- l24 -->
<g id="node8" class="node">
<title>l24</title>
<ellipse fill="gray" stroke="white" stroke-width="15" cx="151" cy="-118" rx="18" ry="18"/>
</g>
<!-- l10&#45;&gt;l24 -->
<g id="edge5" class="edge">
<title>l10&#45;&gt;l24</title>
<path fill="none" stroke="black" d="M52.47,-118C72.59,-118 105.71,-118 127.69,-118"/>
<polygon fill="black" stroke="black" points="127.75,-119.75 132.75,-118 127.75,-116.25 127.75,-119.75"/>
</g>
<!-- l11 -->
<g id="node2" class="node">
<title>l11</title>
<ellipse fill="black" stroke="white" stroke-width="15" cx="34" cy="-76" rx="18" ry="18"/>
</g>
<!-- l11&#45;&gt;l20 -->
<g id="edge6" class="edge">
<title>l11&#45;&gt;l20</title>
<path fill="none" stroke="black" d="M52.47,-76C72.59,-76 105.71,-76 127.69,-76"/>
<polygon fill="black" stroke="black" points="127.75,-77.75 132.75,-76 127.75,-74.25 127.75,-77.75"/>
</g>
<!-- l11&#45;&gt;l21 -->
<g id="edge7" class="edge">
<title>l11&#45;&gt;l21</title>
<path fill="none" stroke="black" d="M51.48,-69.98C71.92,-62.52 106.79,-49.78 129.09,-41.64"/>
<polygon fill="black" stroke="black" points="129.83,-43.23 133.92,-39.87 128.63,-39.94 129.83,-43.23"/>
</g>
<!-- l11&#45;&gt;l22 -->
<g id="edge8" class="edge">
<title>l11&#45;&gt;l22</title>
<path fill="none" stroke="black" d="M46.87,-89.01C67.79,-111.93 111.19,-159.48 134.46,-184.98"/>
<polygon fill="black" stroke="black" points="133.36,-186.36 138.02,-188.87 135.94,-184 133.36,-186.36"/>
</g>
<!-- l11&#45;&gt;l23 -->
<g id="edge9" class="edge">
<title>l11&#45;&gt;l23</title>
<path fill="none" stroke="black" d="M49.1,-86.3C69.88,-101.48 108.73,-129.86 131.69,-146.63"/>
<polygon fill="black" stroke="black" points="130.71,-148.08 135.78,-149.62 132.78,-145.25 130.71,-148.08"/>
</g>
<!-- l11&#45;&gt;l24 -->
<g id="edge10" class="edge">
<title>l11&#45;&gt;l24</title>
<path fill="none" stroke="black" d="M51.48,-82.02C71.92,-89.48 106.79,-102.22 129.09,-110.36"/>
<polygon fill="black" stroke="black" points="128.63,-112.06 133.92,-112.13 129.83,-108.77 128.63,-112.06"/>
</g>
<!-- l12 -->
<g id="node3" class="node">
<title>l12</title>
<ellipse fill="black" stroke="white" stroke-width="15" cx="34" cy="-160" rx="18" ry="18"/>
</g>
<!-- l12&#45;&gt;l20 -->
<g id="edge11" class="edge">
<title>l12&#45;&gt;l20</title>
<path fill="none" stroke="black" d="M49.1,-149.7C69.88,-134.52 108.73,-106.14 131.69,-89.37"/>
<polygon fill="black" stroke="black" points="132.78,-90.75 135.78,-86.38 130.71,-87.92 132.78,-90.75"/>
</g>
<!-- l12&#45;&gt;l21 -->
<g id="edge12" class="edge">
<title>l12&#45;&gt;l21</title>
<path fill="none" stroke="black" d="M46.87,-146.99C67.79,-124.07 111.19,-76.52 134.46,-51.02"/>
<polygon fill="black" stroke="black" points="135.94,-52 138.02,-47.13 133.36,-49.64 135.94,-52"/>
</g>
<!-- l12&#45;&gt;l22 -->
<g id="edge13" class="edge">
<title>l12&#45;&gt;l22</title>
<path fill="none" stroke="black" d="M51.48,-166.02C71.92,-173.48 106.79,-186.22 129.09,-194.36"/>
<polygon fill="black" stroke="black" points="128.63,-196.06 133.92,-196.13 129.83,-192.77 128.63,-196.06"/>
</g>
<!-- l12&#45;&gt;l23 -->
<g id="edge14" class="edge">
<title>l12&#45;&gt;l23</title>
<path fill="none" stroke="black" d="M52.47,-160C72.59,-160 105.71,-160 127.69,-160"/>
<polygon fill="black" stroke="black" points="127.75,-161.75 132.75,-160 127.75,-158.25 127.75,-161.75"/>
</g>
<!-- l12&#45;&gt;l24 -->
<g id="edge15" class="edge">
<title>l12&#45;&gt;l24</title>
<path fill="none" stroke="black" d="M51.48,-153.98C71.92,-146.52 106.79,-133.78 129.09,-125.64"/>
<polygon fill="black" stroke="black" points="129.83,-127.23 133.92,-123.87 128.63,-123.94 129.83,-127.23"/>
</g>
<!-- l30 -->
<g id="node9" class="node">
<title>l30</title>
<ellipse fill="gray" stroke="white" stroke-width="15" cx="268" cy="-76" rx="18" ry="18"/>
</g>
<!-- l20&#45;&gt;l30 -->
<g id="edge16" class="edge">
<title>l20&#45;&gt;l30</title>
<path fill="none" stroke="black" d="M169.47,-76C189.59,-76 222.71,-76 244.69,-76"/>
<polygon fill="black" stroke="black" points="244.75,-77.75 249.75,-76 244.75,-74.25 244.75,-77.75"/>
</g>
<!-- l31 -->
<g id="node10" class="node">
<title>l31</title>
<ellipse fill="gray" stroke="white" stroke-width="15" cx="268" cy="-34" rx="18" ry="18"/>
</g>
<!-- l20&#45;&gt;l31 -->
<g id="edge17" class="edge">
<title>l20&#45;&gt;l31</title>
<path fill="none" stroke="black" d="M168.48,-69.98C188.92,-62.52 223.79,-49.78 246.09,-41.64"/>
<polygon fill="black" stroke="black" points="246.83,-43.23 250.92,-39.87 245.63,-39.94 246.83,-43.23"/>
</g>
<!-- l32 -->
<g id="node11" class="node">
<title>l32</title>
<ellipse fill="gray" stroke="white" stroke-width="15" cx="268" cy="-202" rx="18" ry="18"/>
</g>
<!-- l20&#45;&gt;l32 -->
<g id="edge18" class="edge">
<title>l20&#45;&gt;l32</title>
<path fill="none" stroke="black" d="M163.87,-89.01C184.79,-111.93 228.19,-159.48 251.46,-184.98"/>
<polygon fill="black" stroke="black" points="250.36,-186.36 255.02,-188.87 252.94,-184 250.36,-186.36"/>
</g>
<!-- l33 -->
<g id="node12" class="node">
<title>l33</title>
<ellipse fill="gray" stroke="white" stroke-width="15" cx="268" cy="-160" rx="18" ry="18"/>
</g>
<!-- l20&#45;&gt;l33 -->
<g id="edge19" class="edge">
<title>l20&#45;&gt;l33</title>
<path fill="none" stroke="black" d="M166.1,-86.3C186.88,-101.48 225.73,-129.86 248.69,-146.63"/>
<polygon fill="black" stroke="black" points="247.71,-148.08 252.78,-149.62 249.78,-145.25 247.71,-148.08"/>
</g>
<!-- l34 -->
<g id="node13" class="node">
<title>l34</title>
<ellipse fill="gray" stroke="white" stroke-width="15" cx="268" cy="-118" rx="18" ry="18"/>
</g>
<!-- l20&#45;&gt;l34 -->
<g id="edge20" class="edge">
<title>l20&#45;&gt;l34</title>
<path fill="none" stroke="black" d="M168.48,-82.02C188.92,-89.48 223.79,-102.22 246.09,-110.36"/>
<polygon fill="black" stroke="black" points="245.63,-112.06 250.92,-112.13 246.83,-108.77 245.63,-112.06"/>
</g>
<!-- l21&#45;&gt;l30 -->
<g id="edge21" class="edge">
<title>l21&#45;&gt;l30</title>
<path fill="none" stroke="black" d="M168.48,-40.02C188.92,-47.48 223.79,-60.22 246.09,-68.36"/>
<polygon fill="black" stroke="black" points="245.63,-70.06 250.92,-70.13 246.83,-66.77 245.63,-70.06"/>
</g>
<!-- l21&#45;&gt;l31 -->
<g id="edge22" class="edge">
<title>l21&#45;&gt;l31</title>
<path fill="none" stroke="black" d="M169.47,-34C189.59,-34 222.71,-34 244.69,-34"/>
<polygon fill="black" stroke="black" points="244.75,-35.75 249.75,-34 244.75,-32.25 244.75,-35.75"/>
</g>
<!-- l21&#45;&gt;l32 -->
<g id="edge23" class="edge">
<title>l21&#45;&gt;l32</title>
<path fill="none" stroke="black" d="M162,-48.62C182.82,-79.02 230.77,-149.08 253.97,-182.96"/>
<polygon fill="black" stroke="black" points="252.67,-184.16 256.94,-187.3 255.56,-182.18 252.67,-184.16"/>
</g>
<!-- l21&#45;&gt;l33 -->
<g id="edge24" class="edge">
<title>l21&#45;&gt;l33</title>
<path fill="none" stroke="black" d="M163.87,-47.01C184.79,-69.93 228.19,-117.48 251.46,-142.98"/>
<polygon fill="black" stroke="black" points="250.36,-144.36 255.02,-146.87 252.94,-142 250.36,-144.36"/>
</g>
<!-- l21&#45;&gt;l34 -->
<g id="edge25" class="edge">
<title>l21&#45;&gt;l34</title>
<path fill="none" stroke="black" d="M166.1,-44.3C186.88,-59.48 225.73,-87.86 248.69,-104.63"/>
<polygon fill="black" stroke="black" points="247.71,-106.08 252.78,-107.62 249.78,-103.25 247.71,-106.08"/>
</g>
<!-- l22&#45;&gt;l30 -->
<g id="edge26" class="edge">
<title>l22&#45;&gt;l30</title>
<path fill="none" stroke="black" d="M163.87,-188.99C184.79,-166.07 228.19,-118.52 251.46,-93.02"/>
<polygon fill="black" stroke="black" points="252.94,-94 255.02,-89.13 250.36,-91.64 252.94,-94"/>
</g>
<!-- l22&#45;&gt;l31 -->
<g id="edge27" class="edge">
<title>l22&#45;&gt;l31</title>
<path fill="none" stroke="black" d="M162,-187.38C182.82,-156.98 230.77,-86.92 253.97,-53.04"/>
<polygon fill="black" stroke="black" points="255.56,-53.82 256.94,-48.7 252.67,-51.84 255.56,-53.82"/>
</g>
<!-- l22&#45;&gt;l32 -->
<g id="edge28" class="edge">
<title>l22&#45;&gt;l32</title>
<path fill="none" stroke="black" d="M169.47,-202C189.59,-202 222.71,-202 244.69,-202"/>
<polygon fill="black" stroke="black" points="244.75,-203.75 249.75,-202 244.75,-200.25 244.75,-203.75"/>
</g>
<!-- l22&#45;&gt;l33 -->
<g id="edge29" class="edge">
<title>l22&#45;&gt;l33</title>
<path fill="none" stroke="black" d="M168.48,-195.98C188.92,-188.52 223.79,-175.78 246.09,-167.64"/>
<polygon fill="black" stroke="black" points="246.83,-169.23 250.92,-165.87 245.63,-165.94 246.83,-169.23"/>
</g>
<!-- l22&#45;&gt;l34 -->
<g id="edge30" class="edge">
<title>l22&#45;&gt;l34</title>
<path fill="none" stroke="black" d="M166.1,-191.7C186.88,-176.52 225.73,-148.14 248.69,-131.37"/>
<polygon fill="black" stroke="black" points="249.78,-132.75 252.78,-128.38 247.71,-129.92 249.78,-132.75"/>
</g>
<!-- l23&#45;&gt;l30 -->
<g id="edge31" class="edge">
<title>l23&#45;&gt;l30</title>
<path fill="none" stroke="black" d="M166.1,-149.7C186.88,-134.52 225.73,-106.14 248.69,-89.37"/>
<polygon fill="black" stroke="black" points="249.78,-90.75 252.78,-86.38 247.71,-87.92 249.78,-90.75"/>
</g>
<!-- l23&#45;&gt;l31 -->
<g id="edge32" class="edge">
<title>l23&#45;&gt;l31</title>
<path fill="none" stroke="black" d="M163.87,-146.99C184.79,-124.07 228.19,-76.52 251.46,-51.02"/>
<polygon fill="black" stroke="black" points="252.94,-52 255.02,-47.13 250.36,-49.64 252.94,-52"/>
</g>
<!-- l23&#45;&gt;l32 -->
<g id="edge33" class="edge">
<title>l23&#45;&gt;l32</title>
<path fill="none" stroke="black" d="M168.48,-166.02C188.92,-173.48 223.79,-186.22 246.09,-194.36"/>
<polygon fill="black" stroke="black" points="245.63,-196.06 250.92,-196.13 246.83,-192.77 245.63,-196.06"/>
</g>
<!-- l23&#45;&gt;l33 -->
<g id="edge34" class="edge">
<title>l23&#45;&gt;l33</title>
<path fill="none" stroke="black" d="M169.47,-160C189.59,-160 222.71,-160 244.69,-160"/>
<polygon fill="black" stroke="black" points="244.75,-161.75 249.75,-160 244.75,-158.25 244.75,-161.75"/>
</g>
<!-- l23&#45;&gt;l34 -->
<g id="edge35" class="edge">
<title>l23&#45;&gt;l34</title>
<path fill="none" stroke="black" d="M168.48,-153.98C188.92,-146.52 223.79,-133.78 246.09,-125.64"/>
<polygon fill="black" stroke="black" points="246.83,-127.23 250.92,-123.87 245.63,-123.94 246.83,-127.23"/>
</g>
<!-- l24&#45;&gt;l30 -->
<g id="edge36" class="edge">
<title>l24&#45;&gt;l30</title>
<path fill="none" stroke="black" d="M168.48,-111.98C188.92,-104.52 223.79,-91.78 246.09,-83.64"/>
<polygon fill="black" stroke="black" points="246.83,-85.23 250.92,-81.87 245.63,-81.94 246.83,-85.23"/>
</g>
<!-- l24&#45;&gt;l31 -->
<g id="edge37" class="edge">
<title>l24&#45;&gt;l31</title>
<path fill="none" stroke="black" d="M166.1,-107.7C186.88,-92.52 225.73,-64.14 248.69,-47.37"/>
<polygon fill="black" stroke="black" points="249.78,-48.75 252.78,-44.38 247.71,-45.92 249.78,-48.75"/>
</g>
<!-- l24&#45;&gt;l32 -->
<g id="edge38" class="edge">
<title>l24&#45;&gt;l32</title>
<path fill="none" stroke="black" d="M166.1,-128.3C186.88,-143.48 225.73,-171.86 248.69,-188.63"/>
<polygon fill="black" stroke="black" points="247.71,-190.08 252.78,-191.62 249.78,-187.25 247.71,-190.08"/>
</g>
<!-- l24&#45;&gt;l33 -->
<g id="edge39" class="edge">
<title>l24&#45;&gt;l33</title>
<path fill="none" stroke="black" d="M168.48,-124.02C188.92,-131.48 223.79,-144.22 246.09,-152.36"/>
<polygon fill="black" stroke="black" points="245.63,-154.06 250.92,-154.13 246.83,-150.77 245.63,-154.06"/>
</g>
<!-- l24&#45;&gt;l34 -->
<g id="edge40" class="edge">
<title>l24&#45;&gt;l34</title>
<path fill="none" stroke="black" d="M169.47,-118C189.59,-118 222.71,-118 244.69,-118"/>
<polygon fill="black" stroke="black" points="244.75,-119.75 249.75,-118 244.75,-116.25 244.75,-119.75"/>
</g>
<!-- l40 -->
<g id="node14" class="node">
<title>l40</title>
<ellipse fill="black" stroke="white" stroke-width="15" cx="385" cy="-139" rx="18" ry="18"/>
</g>
<!-- l30&#45;&gt;l40 -->
<g id="edge41" class="edge">
<title>l30&#45;&gt;l40</title>
<path fill="none" stroke="black" d="M284.03,-84.24C304.61,-95.51 341.58,-115.76 364.33,-128.23"/>
<polygon fill="black" stroke="black" points="363.74,-129.89 368.96,-130.76 365.42,-126.82 363.74,-129.89"/>
</g>
<!-- l41 -->
<g id="node15" class="node">
<title>l41</title>
<ellipse fill="black" stroke="white" stroke-width="15" cx="385" cy="-97" rx="18" ry="18"/>
</g>
<!-- l30&#45;&gt;l41 -->
<g id="edge42" class="edge">
<title>l30&#45;&gt;l41</title>
<path fill="none" stroke="black" d="M285.97,-79.1C306.1,-82.77 339.71,-88.91 361.87,-92.96"/>
<polygon fill="black" stroke="black" points="361.73,-94.71 366.96,-93.89 362.36,-91.27 361.73,-94.71"/>
</g>
<!-- l31&#45;&gt;l40 -->
<g id="edge43" class="edge">
<title>l31&#45;&gt;l40</title>
<path fill="none" stroke="black" d="M281.75,-45.64C302.64,-64.72 344.18,-102.64 367.36,-123.81"/>
<polygon fill="black" stroke="black" points="366.32,-125.23 371.2,-127.31 368.68,-122.65 366.32,-125.23"/>
</g>
<!-- l31&#45;&gt;l41 -->
<g id="edge44" class="edge">
<title>l31&#45;&gt;l41</title>
<path fill="none" stroke="black" d="M284.03,-42.24C304.61,-53.51 341.58,-73.76 364.33,-86.23"/>
<polygon fill="black" stroke="black" points="363.74,-87.89 368.96,-88.76 365.42,-84.82 363.74,-87.89"/>
</g>
<!-- l32&#45;&gt;l40 -->
<g id="edge45" class="edge">
<title>l32&#45;&gt;l40</title>
<path fill="none" stroke="black" d="M284.03,-193.76C304.61,-182.49 341.58,-162.24 364.33,-149.77"/>
<polygon fill="black" stroke="black" points="365.42,-151.18 368.96,-147.24 363.74,-148.11 365.42,-151.18"/>
</g>
<!-- l32&#45;&gt;l41 -->
<g id="edge46" class="edge">
<title>l32&#45;&gt;l41</title>
<path fill="none" stroke="black" d="M281.75,-190.36C302.64,-171.28 344.18,-133.36 367.36,-112.19"/>
<polygon fill="black" stroke="black" points="368.68,-113.35 371.2,-108.69 366.32,-110.77 368.68,-113.35"/>
</g>
<!-- l33&#45;&gt;l40 -->
<g id="edge47" class="edge">
<title>l33&#45;&gt;l40</title>
<path fill="none" stroke="black" d="M285.97,-156.9C306.1,-153.23 339.71,-147.09 361.87,-143.04"/>
<polygon fill="black" stroke="black" points="362.36,-144.73 366.96,-142.11 361.73,-141.29 362.36,-144.73"/>
</g>
<!-- l33&#45;&gt;l41 -->
<g id="edge48" class="edge">
<title>l33&#45;&gt;l41</title>
<path fill="none" stroke="black" d="M284.03,-151.76C304.61,-140.49 341.58,-120.24 364.33,-107.77"/>
<polygon fill="black" stroke="black" points="365.42,-109.18 368.96,-105.24 363.74,-106.11 365.42,-109.18"/>
</g>
<!-- l34&#45;&gt;l40 -->
<g id="edge49" class="edge">
<title>l34&#45;&gt;l40</title>
<path fill="none" stroke="black" d="M285.97,-121.1C306.1,-124.77 339.71,-130.91 361.87,-134.96"/>
<polygon fill="black" stroke="black" points="361.73,-136.71 366.96,-135.89 362.36,-133.27 361.73,-136.71"/>
</g>
<!-- l34&#45;&gt;l41 -->
<g id="edge50" class="edge">
<title>l34&#45;&gt;l41</title>
<path fill="none" stroke="black" d="M285.97,-114.9C306.1,-111.23 339.71,-105.09 361.87,-101.04"/>
<polygon fill="black" stroke="black" points="362.36,-102.73 366.96,-100.11 361.73,-99.29 362.36,-102.73"/>
</g>
</g>
</svg>
